<svg width="700" height="770" id="printvenn" style="background-color: white;" title="test2" version="1.1" xmlns="http://www.w3.org/2000/svg"><g class="venn-area venn-circle" data-venn-sets="2" transform="translate(25,70)"><path style="fill-opacity: 0.25; fill: rgb(44, 160, 44); stroke-opacity: 0; stroke: rgb(255, 255, 255); stroke-width: 0;" d="
M 475.76109313540206 310.50000000000006 
m -130.05417228361165 0 
a 130.05417228361165 130.05417228361165 0 1 0 260.1083445672233 0 
a 130.05417228361165 130.05417228361165 0 1 0 -260.1083445672233 0"/><text class="label" text-anchor="middle" dy=".35em" x="480" y="310" style="fill: rgb(44, 160, 44); font-family: sans-serif;" font-size="1.25em"><tspan x="480" y="310" dy="-0.20000000000000007em">"toxicity"</tspan><tspan x="480" y="310" dy="0.9em">[Subheading]</tspan></text></g><g class="venn-area venn-circle" data-venn-sets="1" transform="translate(25,70)"><path style="fill-opacity: 0.25; fill: rgb(255, 127, 14); stroke-opacity: 0; stroke: rgb(255, 255, 255); stroke-width: 0;" d="
M 301.38327765659176 310.49993438702177 
m -53.43178181611691 0 
a 53.43178181611691 53.43178181611691 0 1 0 106.86356363223382 0 
a 53.43178181611691 53.43178181611691 0 1 0 -106.86356363223382 0"/><text class="label" text-anchor="middle" dy=".35em" x="296" y="310" style="fill: rgb(255, 127, 14); font-family: sans-serif;" font-size="1.25em"><tspan x="296" y="310" dy="-0.20000000000000007em">"poisoning"</tspan><tspan x="296" y="310" dy="0.9em">[Subheading]</tspan></text></g><g class="venn-area venn-circle" data-venn-sets="0" transform="translate(25,70)"><path style="fill-opacity: 0.25; fill: rgb(31, 119, 180); stroke-opacity: 0; stroke: rgb(255, 255, 255); stroke-width: 0;" d="
M 310.5 310.5 
m -295.5 0 
a 295.5 295.5 0 1 0 591 0 
a 295.5 295.5 0 1 0 -591 0"/><text class="label" text-anchor="middle" dy=".35em" x="295" y="136" style="fill: rgb(31, 119, 180); font-family: sans-serif;" font-size="1.25em"><tspan x="295" y="136" dy="0.35em">"adverse effects" [Subheading]</tspan></text></g><g class="venn-area venn-intersection" data-venn-sets="0_2" transform="translate(25,70)"><path style="fill-opacity: 0; stroke-opacity: 0; stroke: rgb(255, 255, 255); stroke-width: 0;" d="
M 475.76109313540206 310.50000000000006 
m -130.05417228361165 0 
a 130.05417228361165 130.05417228361165 0 1 0 260.1083445672233 0 
a 130.05417228361165 130.05417228361165 0 1 0 -260.1083445672233 0"/><text class="label" text-anchor="middle" dy=".35em" x="480" y="310" style="fill: rgb(68, 68, 68); font-family: sans-serif;" font-size="1.25em"><tspan x="480" y="310" dy="0.35em"/></text></g><g class="venn-area venn-intersection" data-venn-sets="0_1" transform="translate(25,70)"><path style="fill-opacity: 0; stroke-opacity: 0; stroke: rgb(255, 255, 255); stroke-width: 0;" d="
M 301.38327765659176 310.49993438702177 
m -53.43178181611691 0 
a 53.43178181611691 53.43178181611691 0 1 0 106.86356363223382 0 
a 53.43178181611691 53.43178181611691 0 1 0 -106.86356363223382 0"/><text class="label" text-anchor="middle" dy=".35em" x="296" y="310" style="fill: rgb(68, 68, 68); font-family: sans-serif;" font-size="1.25em"><tspan x="296" y="310" dy="0.35em"/></text></g><g class="venn-area venn-intersection" data-venn-sets="1_2" transform="translate(25,70)"><path style="fill-opacity: 0; stroke-opacity: 0; stroke: rgb(255, 255, 255); stroke-width: 0;" d="
M 348.25990213140113 336.1424261905268 
A 130.05417228361165 130.05417228361165 0 0 1 348.2599214283409 284.85747785997165 
A 53.43178181611691 53.43178181611691 0 0 1 348.25990213140113 336.1424261905268"/><text class="label" text-anchor="middle" dy=".35em" x="350" y="310" style="fill: rgb(68, 68, 68); font-family: sans-serif;" font-size="1.25em"><tspan x="350" y="310" dy="0.35em"/></text></g><text font-size=".9em" x="25" y="750" class="credit" fill="darkgrey" style="font-family: sans-serif;">Made with PubVenn: https://pubvenn.appspot.com/</text><text font-size="2em" x="20" y="45" class="printable-title" fill="black" style="font-family: Century Gothic,Helvetica,sans-serif;">"adverse effects" [Subheading] AND "poisoning" [Subheading]<tspan x="20" dy="1.1em">AND "toxicity" [Subheading]</tspan></text></svg>