<svg width="700" height="745" id="printvenn" style="background-color: white;" title="test2" version="1.1" xmlns="http://www.w3.org/2000/svg"><g class="venn-area venn-circle" data-venn-sets="0" transform="translate(25,45)"><path style="fill-opacity: 0.25; fill: rgb(31, 119, 180); stroke-opacity: 0; stroke: rgb(255, 255, 255); stroke-width: 0;" d="
M 392.09590068512995 310.5 
m -213.90409931487005 0 
a 213.90409931487005 213.90409931487005 0 1 0 427.8081986297401 0 
a 213.90409931487005 213.90409931487005 0 1 0 -427.8081986297401 0"/><text class="label" text-anchor="middle" dy=".35em" x="605" y="310" style="fill: rgb(31, 119, 180); font-family: sans-serif;" font-size="1.25em"><tspan x="605" y="310" dy="-0.20000000000000007em">"depressive</tspan><tspan x="605" y="310" dy="0.9em">disorder"[mesh]</tspan></text></g><g class="venn-area venn-circle" data-venn-sets="1" transform="translate(25,45)"><path style="fill-opacity: 0.25; fill: rgb(255, 127, 14); stroke-opacity: 0; stroke: rgb(255, 255, 255); stroke-width: 0;" d="
M 310.4999999999274 310.5 
m -295.4999999999274 0 
a 295.4999999999274 295.4999999999274 0 1 0 590.9999999998548 0 
a 295.4999999999274 295.4999999999274 0 1 0 -590.9999999998548 0"/><text class="label" text-anchor="middle" dy=".35em" x="96" y="310" style="fill: rgb(255, 127, 14); font-family: sans-serif;" font-size="1.25em"><tspan x="96" y="310" dy="0.35em">depression[mesh]</tspan></text></g><g class="venn-area venn-intersection" data-venn-sets="0_1" transform="translate(25,45)"><path style="fill-opacity: 0; stroke-opacity: 0; stroke: rgb(255, 255, 255); stroke-width: 0;" d="
M 605.9999999994743 310.5004742590829 
A 213.90409931487005 213.90409931487005 0 1 1 605.9999999994743 310.4995257409171 
A 295.4999999999274 295.4999999999274 0 0 1 605.9999999994743 310.5004742590829"/><text class="label" text-anchor="middle" dy=".35em" x="392" y="310" style="fill: rgb(68, 68, 68); font-family: sans-serif;" font-size="1.25em"><tspan x="392" y="310" dy="0.35em"/></text></g><text font-size=".9em" x="25" y="725" class="credit" fill="darkgrey" style="font-family: sans-serif;">Made with PubVenn: https://pubvenn.appspot.com/</text><text font-size="1.75em" x="20" y="45" class="printable-title" fill="black" style="font-family: Century Gothic,Helvetica,sans-serif;">depression[mesh] OR "depressive disorder"[mesh]</text></svg>