<svg width="700" height="745" id="printvenn" style="background-color: white;" title="test2" version="1.1" xmlns="http://www.w3.org/2000/svg"><g class="venn-area venn-circle" data-venn-sets="1" transform="translate(25,45)"><path style="fill-opacity: 0.25; fill: rgb(255, 127, 14); stroke-opacity: 0; stroke: rgb(255, 255, 255); stroke-width: 0;" d="
M 467.1146812436174 310.5 
m -138.88531875638267 0 
a 138.88531875638267 138.88531875638267 0 1 0 277.77063751276535 0 
a 138.88531875638267 138.88531875638267 0 1 0 -277.77063751276535 0"/><text class="label" text-anchor="middle" dy=".35em" x="521" y="310" style="fill: rgb(255, 127, 14); font-family: sans-serif;" font-size="1.25em"><tspan x="521" y="310" dy="0.35em">poisoning[subheading]</tspan></text></g><g class="venn-area venn-circle" data-venn-sets="0" transform="translate(25,45)"><path style="fill-opacity: 0.25; fill: rgb(31, 119, 180); stroke-opacity: 0; stroke: rgb(255, 255, 255); stroke-width: 0;" d="
M 225.9346509571731 310.5 
m -210.9346509571731 0 
a 210.9346509571731 210.9346509571731 0 1 0 421.8693019143462 0 
a 210.9346509571731 210.9346509571731 0 1 0 -421.8693019143462 0"/><text class="label" text-anchor="middle" dy=".35em" x="171" y="310" style="fill: rgb(31, 119, 180); font-family: sans-serif;" font-size="1.25em"><tspan x="171" y="310" dy="0.35em">poisoning[mesh]</tspan></text></g><g class="venn-area venn-intersection" data-venn-sets="0_1" transform="translate(25,45)"><path style="fill-opacity: 0; stroke-opacity: 0; stroke: rgb(255, 255, 255); stroke-width: 0;" d="
M 398.77670201404 431.4092732625578 
A 138.88531875638267 138.88531875638267 0 0 1 398.77670201404 189.5907267374422 
A 210.9346509571731 210.9346509571731 0 0 1 398.77670201404 431.4092732625578"/><text class="label" text-anchor="middle" dy=".35em" x="382" y="310" style="fill: rgb(68, 68, 68); font-family: sans-serif;" font-size="1.25em"><tspan x="382" y="310" dy="0.35em"/></text></g><text font-size=".9em" x="25" y="725" class="credit" fill="darkgrey" style="font-family: sans-serif;">Made with PubVenn: https://pubvenn.appspot.com/</text><text font-size="2em" x="20" y="45" class="printable-title" fill="black" style="font-family: Century Gothic,Helvetica,sans-serif;">poisoning[mesh] OR poisoning[subheading]</text></svg>